<?xml version="1.0" encoding="UTF-8"?>
<!DOCTYPE svg PUBLIC "-//W3C//DTD SVG 1.1//EN" "http://www.w3.org/Graphics/SVG/1.1/DTD/svg11.dtd">
<!-- Creator: CorelDRAW X7 -->
<svg xmlns="http://www.w3.org/2000/svg" xml:space="preserve" width="200px" height="167px" version="1.1" style="shape-rendering:geometricPrecision; text-rendering:geometricPrecision; image-rendering:optimizeQuality; fill-rule:evenodd; clip-rule:evenodd"
viewBox="0 0 200 167"
 xmlns:xlink="http://www.w3.org/1999/xlink">
 <defs>
  <style type="text/css">
   <![CDATA[
    .fil3 {fill:#CCCCCC;fill-rule:nonzero}
    .fil0 {fill:url(#id0)}
    .fil1 {fill:url(#id1);fill-rule:nonzero}
    .fil2 {fill:url(#id2);fill-rule:nonzero}
   ]]>
  </style>
  <linearGradient id="id0" gradientUnits="userSpaceOnUse" x1="262.989" y1="30.9917" x2="342.477" y2="114.357">
   <stop offset="0" style="stop-opacity:1; stop-color:#F0AC00"/>
   <stop offset="0.721569" style="stop-opacity:1; stop-color:#EA9800"/>
   <stop offset="1" style="stop-opacity:1; stop-color:#E38400"/>
  </linearGradient>
  <linearGradient id="id1" gradientUnits="objectBoundingBox" xlink:href="#id0" x1="23.8703%" y1="0%" x2="76.1297%" y2="100.624%">
  </linearGradient>
  <linearGradient id="id2" gradientUnits="userSpaceOnUse" x1="54.6713" y1="56.0478" x2="153.808" y2="130.4">
   <stop offset="0" style="stop-opacity:1; stop-color:#F0AC00"/>
   <stop offset="0.690196" style="stop-opacity:1; stop-color:#E79700"/>
   <stop offset="1" style="stop-opacity:1; stop-color:#DE8200"/>
  </linearGradient>
 </defs>
 <g id="Vrstva_x0020_1">
  <metadata id="CorelCorpID_0Corel-Layer"/>
  <g id="_1945071243808">
   <path class="fil0" d="M359 20l0 0 0 0 -112 0 -1 0 0 0c-4,0 -6,3 -7,7l0 0 0 74c0,1 1,3 1,4 2,2 4,4 7,4l41 0 0 10 -8 0c-2,0 -4,1 -4,3 0,2 2,4 4,4l46 0c2,0 3,-2 3,-4 0,-2 -1,-3 -3,-3l-8 0 0 -10 41 0c3,0 5,-2 6,-4 1,-1 1,-3 1,-4l0 -74 0 0c0,-4 -3,-7 -7,-7zm0 7l0 74c0,0 0,1 0,1l-112 0c-1,0 -1,-1 -1,-1l0 -74 0 0 113 0 0 0 0 0z"/>
  </g>
  <g id="_1945071244928">
  </g>
  <g id="_1945071243968">
  </g>
  <g id="_1945071245792">
  </g>
  <g id="_1945071244864">
  </g>
  <g id="_1945071243616">
  </g>
  <g id="_1945071243552">
  </g>
  <g id="_1945071241920">
  </g>
  <g id="_1945071241824">
  </g>
  <g id="_1945071242944">
  </g>
  <g id="_1945071241728">
  </g>
  <g id="_1945071240224">
  </g>
  <g id="_1945071240736">
  </g>
  <g id="_1945071239776">
  </g>
  <g id="_1945071240000">
  </g>
  <g id="_1945071239872">
  </g>
  <path class="fil1" d="M273 55l-12 -2c1,-4 3,-7 6,-9 3,-2 7,-3 12,-3 6,0 10,1 13,3 2,2 4,5 4,8 0,2 -1,4 -2,6 -1,1 -3,3 -5,4 2,0 3,1 4,1 2,1 3,2 4,4 0,1 1,3 1,5 0,3 -1,6 -2,8 -2,2 -4,4 -6,6 -3,1 -6,1 -10,1 -4,0 -8,0 -10,-1 -2,-1 -4,-2 -6,-4 -1,-2 -3,-4 -3,-7l12 -2c1,3 1,4 2,5 1,1 3,2 4,2 2,0 3,-1 5,-2 1,-1 1,-3 1,-5 0,-2 0,-4 -1,-5 -1,-1 -3,-2 -5,-2 -1,0 -2,1 -4,1l1 -9c1,0 1,0 2,0 1,0 2,0 4,-1 1,-1 1,-2 1,-4 0,-1 0,-2 -1,-3 -1,-1 -2,-1 -3,-1 -2,0 -3,0 -4,1 -1,1 -2,2 -2,5z"/>
  <path id="1" class="fil1" d="M305 42l21 0c4,0 7,0 10,1 2,1 4,3 6,5 2,2 3,4 4,7 0,3 1,6 1,9 0,5 -1,9 -2,11 -1,3 -2,5 -4,7 -2,2 -4,3 -7,3 -3,1 -6,2 -8,2l-21 0 0 -45zm14 10l0 24 4 0c3,0 5,0 6,-1 1,0 2,-1 3,-3 0,-2 1,-4 1,-8 0,-5 -1,-8 -3,-10 -1,-1 -4,-2 -7,-2l-4 0z"/>
  <path class="fil2" d="M138 108c-10,0 -18,-9 -16,-19 1,-6 6,-11 12,-12 1,0 2,0 3,0 0,0 0,0 1,0 0,0 0,0 0,0 1,0 2,0 3,0 6,1 11,6 12,12 2,10 -6,19 -15,19zm-67 0c-10,0 -17,-9 -15,-19 1,-6 6,-11 12,-12 1,0 1,0 2,0 0,0 1,0 1,0 0,0 0,0 1,0 0,0 1,0 2,0 6,1 11,6 12,12 2,10 -6,19 -15,19zm97 -61l-128 0c-4,0 -8,3 -8,8l0 76c0,5 4,9 8,9l35 0c2,0 4,-2 6,-3l13 -26c0,-1 0,-1 0,-1 1,-1 2,-2 2,-3 2,-3 5,-5 8,-5l0 0c4,0 6,2 8,5 1,1 2,2 2,3 0,0 0,0 1,1l13 26c1,1 3,3 6,3l34 0c5,0 9,-4 9,-9l0 -76c0,-5 -4,-8 -9,-8z"/>
  <path class="fil3" d="M-56 433c0,1 -1,2 -1,3 0,1 -1,2 -2,3 -1,1 -2,1 -3,2 -1,0 -2,1 -3,1l-2 0c-1,0 -2,-1 -3,-1 -1,-1 -2,-1 -3,-2 -1,-1 -2,-2 -2,-3 -1,-1 -1,-2 -1,-3l0 -1 3 -1 0 2c0,0 1,1 1,2 0,1 1,1 1,2 1,0 1,1 2,1 1,0 1,0 2,0l2 0c0,0 1,0 2,0 1,0 1,-1 2,-1 0,-1 1,-1 1,-2 0,-1 0,-2 0,-2l0 -3c0,-1 0,-2 0,-3 0,0 -1,-1 -1,-2 -1,0 -1,-1 -2,-1 -1,0 -2,0 -2,0l-3 0 0 -3 3 0c0,0 1,-1 2,-1 1,0 1,-1 2,-1 0,-1 1,-1 1,-2 0,-1 0,-1 0,-2l0 -2c0,-1 0,-2 0,-2 0,-1 -1,-2 -1,-2 -1,-1 -1,-1 -2,-2 -1,0 -2,0 -2,0l-2 0c-1,0 -1,0 -2,0 -1,1 -1,1 -2,2 0,0 -1,1 -1,2 0,0 -1,1 -1,2l0 1 -3 0 0 -1c0,-1 0,-3 1,-4 0,-1 1,-2 2,-2 1,-1 2,-2 3,-2 1,-1 2,-1 3,-1l2 0c1,0 2,0 3,1 1,0 2,1 3,2 1,0 2,1 2,2 0,1 1,3 1,4l0 1c0,1 0,2 -1,3 0,0 0,1 -1,2 0,1 -1,1 -1,2 -1,0 -1,1 -2,1 1,1 1,1 2,2 0,0 1,1 1,1 1,1 1,2 1,3 1,0 1,1 1,2l0 3z"/>
  <path id="1" class="fil3" d="M-28 432c0,1 0,2 0,4 -1,1 -2,2 -2,2 -1,1 -2,2 -3,2 -1,1 -3,1 -4,1l-11 0 0 -37 11 0c1,0 3,1 4,1 1,1 2,1 3,2 0,1 1,2 2,3 0,1 0,2 0,3l0 19zm-3 -19c0,0 0,-1 -1,-2 0,-1 0,-1 -1,-2 0,0 -1,-1 -2,-1 0,0 -1,0 -2,0l-8 0 0 30 8 0c1,0 2,0 2,-1 1,0 2,0 2,-1 1,0 1,-1 1,-2 1,0 1,-1 1,-2l0 -19z"/>
  <polygon id="2" class="fil3" points="-4,408 -4,441 -7,441 -7,408 -16,408 -16,404 5,404 5,408 "/>
  <polygon id="3" class="fil3" points="18,433 18,434 18,433 26,404 29,404 19,441 17,441 6,404 10,404 "/>
  <path id="4" class="fil3" d="M65 442c-2,0 -3,-1 -4,-1 -1,-1 -2,-2 -3,-3 -1,1 -2,2 -3,3 -1,0 -2,1 -4,1l-1 0c-2,0 -3,-1 -4,-1 -1,-1 -2,-1 -3,-2 -1,-1 -1,-2 -2,-3 0,-1 -1,-2 -1,-3l0 -2c0,-1 1,-2 1,-3 0,-1 0,-1 1,-2 0,-1 1,-1 1,-2 1,-1 2,-1 2,-1 0,-1 -1,-1 -2,-2 0,0 -1,-1 -1,-2 -1,0 -1,-1 -1,-2 0,-1 -1,-1 -1,-2l0 -2c0,-1 1,-3 1,-4 1,-1 1,-2 2,-2 1,-1 2,-2 3,-2 1,-1 2,-1 4,-1l1 0c1,0 2,0 4,1 1,0 2,1 2,2 1,0 2,1 2,2 1,1 1,3 1,4l0 0 -3 1 0 -1c0,-1 0,-2 -1,-2 0,-1 0,-2 -1,-2 0,-1 -1,-1 -2,-2 -1,0 -1,0 -2,0l-1 0c-1,0 -2,0 -3,0 0,1 -1,1 -1,2 -1,0 -1,1 -2,2 0,0 0,1 0,2l0 2c0,1 0,2 0,2 1,1 1,2 2,2 0,1 1,1 1,2 1,0 2,0 3,0l7 0 0 -3 3 -1 0 4 5 0 0 3 -5 0 0 9c0,1 0,1 0,2 1,1 1,1 1,2 1,0 1,1 2,1 0,0 1,0 2,0l1 0 -1 4 0 0zm-14 -4c1,0 1,0 2,0 1,0 1,-1 2,-1 0,-1 1,-1 1,-2 1,-1 1,-1 1,-2l0 -9 -7 0c-1,0 -2,0 -3,1 0,0 -1,0 -1,1 -1,0 -1,1 -2,2 0,0 0,1 0,2l0 3c0,0 0,1 0,2 1,1 1,1 2,2 0,0 1,1 1,1 1,0 2,0 3,0l1 0z"/>
  <path id="5" class="fil3" d="M101 433c0,1 -1,2 -1,3 -1,1 -1,2 -2,3 -1,1 -2,1 -3,2 -1,0 -2,1 -3,1l-3 0c-1,0 -3,-1 -4,-1 -1,-1 -2,-1 -2,-2 -1,-1 -2,-2 -2,-3 -1,-1 -1,-2 -1,-3l0 -20c0,-1 0,-3 1,-4 0,-1 1,-2 2,-2 0,-1 1,-2 2,-2 1,-1 3,-1 4,-1l3 0c1,0 2,0 3,1 1,0 2,1 3,2 1,0 1,1 2,2 0,1 1,3 1,4l0 1 -4 1 0 -2c0,-1 0,-2 0,-2 -1,-1 -1,-2 -1,-2 -1,-1 -2,-1 -2,-2 -1,0 -2,0 -3,0l-2 0c-1,0 -2,0 -2,0 -1,1 -2,1 -2,2 -1,0 -1,1 -1,2 -1,0 -1,1 -1,2l0 20c0,0 0,1 1,2 0,1 0,1 1,2 0,0 1,1 2,1 0,0 1,0 2,0l2 0c1,0 2,0 3,0 0,0 1,-1 2,-1 0,-1 0,-1 1,-2 0,-1 0,-2 0,-2l0 -2 4 0 0 2z"/>
  <path id="6" class="fil3" d="M122 433l-12 0 -2 8 -4 0 11 -37 2 0 10 37 -3 0 -2 -8zm-11 -4l10 0 -5 -17 0 -1 0 1 -5 17z"/>
  <path id="7" class="fil3" d="M149 441l-10 -16 -4 0 0 16 -3 0 0 -37 11 0c2,0 3,1 4,1 1,1 2,1 3,2 0,1 1,2 2,3 0,1 0,2 0,3l0 3c0,2 0,3 0,4 -1,1 -2,2 -2,3 -1,1 -2,1 -3,2 -1,0 -2,0 -4,0l10 16 -4 0zm0 -28c0,0 0,-1 -1,-2 0,-1 0,-1 -1,-2 0,0 -1,-1 -2,-1 0,0 -1,0 -2,0l-8 0 0 14 8 0c1,0 2,0 2,0 1,0 2,-1 2,-1 1,-1 1,-2 1,-2 1,-1 1,-2 1,-3l0 -3z"/>
  <path id="8" class="fil3" d="M180 432c0,1 0,2 -1,4 0,1 -1,2 -2,2 0,1 -1,2 -2,2 -1,1 -3,1 -4,1l-12 0 0 -37 12 0c1,0 3,1 4,1 1,1 2,1 2,2 1,1 2,2 2,3 1,1 1,2 1,3l0 19zm-3 -19c0,0 0,-1 -1,-2 0,-1 0,-1 -1,-2 0,0 -1,-1 -2,-1 0,0 -1,0 -2,0l-8 0 0 30 8 0c1,0 2,0 2,-1 1,0 2,0 2,-1 1,0 1,-1 1,-2 1,0 1,-1 1,-2l0 -19z"/>
  <path id="9" class="fil3" d="M209 432c0,1 -1,2 -1,4 -1,1 -1,2 -2,2 -1,1 -2,2 -3,2 -1,1 -2,1 -3,1l-12 0 0 -37 12 0c1,0 2,1 3,1 1,1 2,1 3,2 1,1 1,2 2,3 0,1 1,2 1,3l0 1c0,1 0,1 -1,2 0,1 0,2 -1,2 0,1 -1,2 -1,2 -1,1 -1,1 -2,2 1,0 1,1 2,1 0,1 1,1 1,2 1,1 1,1 1,2 1,1 1,2 1,3l0 2zm-4 -3c0,-1 0,-1 0,-2 0,-1 -1,-1 -1,-2 -1,0 -2,-1 -2,-1 -1,-1 -2,-1 -3,-1l-8 0 0 15 8 0c1,0 2,0 3,-1 0,0 1,0 2,-1 0,0 1,-1 1,-2 0,0 0,-1 0,-2l0 -3zm0 -16c0,0 0,-1 0,-2 0,-1 -1,-1 -1,-2 -1,0 -2,-1 -2,-1 -1,0 -2,0 -3,0l-8 0 0 12 8 0c1,0 2,0 3,0 0,-1 1,-1 2,-2 0,0 1,-1 1,-1 0,-1 0,-2 0,-3l0 -1z"/>
  <path id="10" class="fil3" d="M235 433c0,1 0,2 -1,3 0,1 -1,2 -2,3 0,1 -1,1 -2,2 -2,0 -3,1 -4,1l-3 0c-1,0 -2,-1 -3,-1 -1,-1 -2,-1 -3,-2 -1,-1 -1,-2 -2,-3 0,-1 -1,-2 -1,-3l0 -20c0,-1 1,-3 1,-4 1,-1 1,-2 2,-2 1,-1 2,-2 3,-2 1,-1 2,-1 3,-1l3 0c1,0 2,0 4,1 1,0 2,1 2,2 1,0 2,1 2,2 1,1 1,3 1,4l0 20zm-3 -20c0,-1 0,-2 -1,-2 0,-1 0,-2 -1,-2 -1,-1 -1,-1 -2,-2 -1,0 -1,0 -2,0l-2 0c-1,0 -2,0 -3,0 0,1 -1,1 -2,2 0,0 -1,1 -1,2 0,0 0,1 0,2l0 20c0,0 0,1 0,2 0,1 1,1 1,2 1,0 2,1 2,1 1,0 2,0 3,0l2 0c1,0 1,0 2,0 1,0 1,-1 2,-1 1,-1 1,-1 1,-2 1,-1 1,-2 1,-2l0 -20z"/>
  <path id="11" class="fil3" d="M257 433l-12 0 -2 8 -4 0 11 -37 2 0 10 37 -3 0 -2 -8zm-11 -4l10 0 -5 -17 0 -1 0 1 -5 17z"/>
  <path id="12" class="fil3" d="M284 441l-10 -16 -4 0 0 16 -3 0 0 -37 11 0c2,0 3,1 4,1 1,1 2,1 3,2 0,1 1,2 2,3 0,1 0,2 0,3l0 3c0,2 0,3 0,4 -1,1 -2,2 -2,3 -1,1 -2,1 -3,2 -1,0 -2,0 -4,0l10 16 -4 0zm0 -28c0,0 0,-1 0,-2 -1,-1 -1,-1 -2,-2 0,0 -1,-1 -2,-1 0,0 -1,0 -2,0l-8 0 0 14 8 0c1,0 2,0 2,0 1,0 2,-1 2,-1 1,-1 1,-2 2,-2 0,-1 0,-2 0,-3l0 -3z"/>
  <path id="13" class="fil3" d="M315 432c0,1 0,2 -1,4 0,1 -1,2 -1,2 -1,1 -2,2 -3,2 -1,1 -3,1 -4,1l-11 0 0 -37 11 0c1,0 3,1 4,1 1,1 2,1 3,2 0,1 1,2 1,3 1,1 1,2 1,3l0 19zm-3 -19c0,0 0,-1 -1,-2 0,-1 0,-1 -1,-2 0,0 -1,-1 -2,-1 0,0 -1,0 -2,0l-8 0 0 30 8 0c1,0 2,0 2,-1 1,0 2,0 2,-1 1,0 1,-1 1,-2 1,0 1,-1 1,-2l0 -19z"/>
  <path class="fil3" d="M-40 528l-20 -32 -10 0 0 32 -6 0 0 -74 23 0c3,0 5,0 7,1 2,1 4,2 6,4 2,2 3,4 4,6 1,2 1,5 1,7l0 6c0,3 0,5 -1,7 -1,2 -2,4 -4,6 -2,2 -4,3 -6,4 -2,1 -4,1 -7,1l20 32 -7 0zm-1 -56c0,-2 -1,-3 -1,-5 -1,-1 -2,-2 -3,-3 -1,-1 -2,-2 -3,-3 -2,-1 -3,-1 -5,-1l-17 0 0 30 17 0c2,0 3,0 5,-1 1,-1 2,-1 3,-3 1,-1 2,-2 3,-3 0,-2 1,-3 1,-5l0 -6z"/>
  <polygon id="1" class="fil3" points="14,528 14,454 56,454 56,460 21,460 21,488 49,488 49,494 21,494 21,522 56,522 56,528 "/>
  <path id="2" class="fil3" d="M130 511l-23 0 -5 17 -7 0 21 -74 4 0 22 74 -7 0 -5 -17zm-22 -7l20 0 -10 -34 0 -3 0 3 -10 34z"/>
  <path id="3" class="fil3" d="M227 510c0,2 -1,5 -2,7 -1,2 -2,4 -3,6 -2,1 -4,3 -6,3 -2,1 -5,2 -7,2l-24 0 0 -74 24 0c2,0 5,0 7,1 2,1 4,2 6,4 1,2 2,4 3,6 1,2 2,5 2,7l0 38zm-7 -38c0,-2 0,-3 -1,-5 0,-1 -1,-2 -2,-3 -1,-1 -3,-2 -4,-3 -1,-1 -3,-1 -5,-1l-16 0 0 62 16 0c2,0 4,-1 5,-1 1,-1 3,-2 4,-3 1,-1 2,-2 2,-4 1,-1 1,-3 1,-4l0 -38z"/>
  <polygon id="4" class="fil3" points="294,492 294,528 287,528 287,493 268,454 275,454 291,485 306,454 313,454 "/>
 </g>
</svg>
